# File created by Blade
# Date/Time:  Thu Jan 22 19:18:24 2015
#---------------------------------------------------------
:version 1.10
:name HOM
:units
  mass 1.0
  length 1.000000
  angle deg
:documentation
     Acclaim Skeleton File
:root
   axis xyz
   order TX TY TZ RX RY RZ
   position 0.000000 0.000000 0.000000
   orientation 0 0 0
:bonedata
   begin
      id 1
      name RightUpLeg_dum
      direction -1.000000 0.000000 0.000000
      length 4.478084
      axis 0.0 0.0 0.0 xyz
   end
   begin
      id 2
      name LeftUpLeg_dum
      direction 1.000000 0.000000 0.000000
      length 4.478084
      axis 0.0 0.0 0.0 xyz
   end
   begin
      id 3
      name Spine_dum
      direction 0.000000 1.000000 0.000000
      length 6.068208
      axis 0.0 0.0 0.0 xyz
   end
   begin
      id 4
      name RightUpLeg
      direction 0.000000 -1.000000 0.000000
      length 16.405774
      axis 0.0 0.0 0.0 xyz
      dof rx ry rz
   end
   begin
      id 5
      name RightLeg
      direction 0.000000 -1.000000 0.000000
      length 14.644143
      axis 0.0 0.0 0.0 xyz
      dof rx ry rz
   end
   begin
      id 6
      name RightFoot
      direction 0.000000 -0.258819 0.965926
      length 5.806150
      axis 15.0 0.0 0.0 xyz
      dof rx ry rz
   end
   begin
      id 7
      name RightToeBase
      direction 0.000000 0.000000 1.000000
      length 2.952750
      axis 0.0 0.0 0.0 xyz
      dof rx ry rz
   end
   begin
      id 8
      name LeftUpLeg
      direction 0.000000 -1.000000 0.000000
      length 16.405774
      axis 0.0 0.0 0.0 xyz
      dof rx ry rz
   end
   begin
      id 9
      name LeftLeg
      direction 0.000000 -1.000000 0.000000
      length 14.644143
      axis 0.0 0.0 0.0 xyz
      dof rx ry rz
   end
   begin
      id 10
      name LeftFoot
      direction 0.000000 -0.258819 0.965926
      length 5.806150
      axis 15.0 0.0 0.0 xyz
      dof rx ry rz
   end
   begin
      id 11
      name LeftToeBase
      direction 0.000000 0.000000 1.000000
      length 2.952750
      axis 0.0 0.0 0.0 xyz
      dof rx ry rz
   end
   begin
      id 12
      name Spine
      direction 0.000000 1.000000 0.000000
      length 0.000000
      axis 0.0 0.0 0.0 xyz
      dof rx ry rz
   end
   begin
      id 13
      name Spine_dum1
      direction 0.000000 1.000000 0.000000
      length 10.013923
      axis 0.0 0.0 0.0 xyz
   end
   begin
      id 14
      name Spine_dum2
      direction 0.000000 1.000000 0.000000
      length 10.013923
      axis 0.0 0.0 0.0 xyz
   end
   begin
      id 15
      name Spine_dum3
      direction 0.000000 1.000000 0.000000
      length 15.777476
      axis 0.0 0.0 0.0 xyz
   end
   begin
      id 16
      name RightShoulder
      direction -1.000000 0.000000 0.000000
      length 7.190220
      axis 0.0 0.0 90.0 xyz
      dof rx ry rz
   end
   begin
      id 17
      name RightArm
      direction -1.000000 0.000000 0.000000
      length 10.177469
      axis 0.0 0.0 90.0 xyz
      dof rx ry rz
   end
   begin
      id 18
      name RightForeArm
      direction -1.000000 0.000000 0.000000
      length 8.392114
      axis 0.0 0.0 90.0 xyz
      dof ry rz rx
   end
   begin
      id 19
      name RightHand
      direction -1.000000 0.000000 0.000000
      length 0.000000
      axis 0.0 0.0 90.0 xyz
      dof rx ry rz
   end
   begin
      id 20
      name RightHand_dum1
      direction -1.000000 0.000000 0.000000
      length 3.937000
      axis 0.0 0.0 90.0 xyz
   end
   begin
      id 21
      name RightHand_dum2
      direction 0.000000 0.000000 0.000000
      length 0.000000
      axis 0.0 0.0 90.0 xyz
   end
   begin
      id 22
      name RightHandThumb1
      direction 0.000000 0.000000 1.000000
      length 3.937000
      axis 0.0 0.0 90.0 xyz
      dof rx rz ry
   end
   begin
      id 23
      name LeftShoulder
      direction 1.000000 0.000000 0.000000
      length 7.190220
      axis 0.0 0.0 -90.0 xyz
      dof rx ry rz
   end
   begin
      id 24
      name LeftArm
      direction 1.000000 0.000000 0.000000
      length 10.177469
      axis 0.0 0.0 -90.0 xyz
      dof rx ry rz
   end
   begin
      id 25
      name LeftForeArm
      direction 1.000000 0.000000 0.000000
      length 8.392114
      axis 0.0 0.0 -90.0 xyz
      dof ry rz rx
   end
   begin
      id 26
      name LeftHand
      direction 1.000000 0.000000 0.000000
      length 0.000000
      axis 0.0 0.0 -90.0 xyz
      dof rx ry rz
   end
   begin
      id 27
      name LeftHand_dum1
      direction 1.000000 0.000000 0.000000
      length 3.937000
      axis 0.0 0.0 -90.0 xyz
   end
   begin
      id 28
      name LeftHand_dum2
      direction 0.000000 0.000000 0.000000
      length 0.000000
      axis 0.0 0.0 -90.0 xyz
   end
   begin
      id 29
      name LeftHandThumb1
      direction 0.000000 0.000000 1.000000
      length 3.937000
      axis 0.0 0.0 -90.0 xyz
      dof rx rz ry
   end
   begin
      id 30
      name Head
      direction 0.000000 1.000000 0.000000
      length 4.527550
      axis 0.0 0.0 0.0 xyz
      dof rx ry rz
   end
:hierarchy
   begin
      root RightUpLeg_dum LeftUpLeg_dum Spine_dum
      RightUpLeg_dum RightUpLeg
      LeftUpLeg_dum LeftUpLeg
      Spine_dum Spine
      RightUpLeg RightLeg
      RightLeg RightFoot
      RightFoot RightToeBase
      LeftUpLeg LeftLeg
      LeftLeg LeftFoot
      LeftFoot LeftToeBase
      Spine Spine_dum1 Spine_dum2 Spine_dum3
      Spine_dum1 RightShoulder
      Spine_dum2 LeftShoulder
      Spine_dum3 Head
      RightShoulder RightArm
      RightArm RightForeArm
      RightForeArm RightHand
      RightHand RightHand_dum1 RightHand_dum2
      RightHand_dum2 RightHandThumb1
      LeftShoulder LeftArm
      LeftArm LeftForeArm
      LeftForeArm LeftHand
      LeftHand LeftHand_dum1 LeftHand_dum2
      LeftHand_dum2 LeftHandThumb1
   end

# File created by Blade
# Date/Time:  Thu Jan 22 19:18:16 2015
# Frame Rate: 120.000 fps
#------------------------------------------------------
:FULLY-SPECIFIED
:DEGREES
313
root 1.858969 32.347746 -6.403323 38.410137 -12.717874 8.301573
RightUpLeg -46.306195 -7.683258 -19.785578
RightLeg 2.012430 -0.000000 -0.000000
RightFoot -4.206325 -3.750374 8.761582
RightToeBase 6.966969 -0.000000 -0.000000
LeftUpLeg -40.117610 13.118325 -1.304607
LeftLeg 0.194565 -0.000000 -0.000000
LeftFoot 0.944261 6.163798 -26.598088
LeftToeBase 5.626627 -0.000000 -0.000000
Spine 7.791317 -6.224726 18.522419
RightShoulder -9.307853 -2.540928 -26.454473
RightArm 33.683262 17.704099 47.682301
RightForeArm -15.387585 -0.000000 24.607081
RightHand 15.203580 -0.000000 -3.586601
RightHandThumb1 -24.326973 -0.000000 -32.862282
LeftShoulder -13.818669 -6.066703 31.558799
LeftArm 51.941641 -13.669547 -45.056976
LeftForeArm 24.697503 -0.000000 19.830319
LeftHand -0.829976 -0.000000 4.929561
LeftHandThumb1 -26.253704 0.000000 33.147579
Head -24.055744 -7.227056 3.584813
314
root 1.886872 32.340626 -6.434094 38.754668 -12.911091 8.358814
RightUpLeg -46.798536 -7.745045 -19.915124
RightLeg 2.077565 -0.000000 -0.000000
RightFoot -4.184270 -3.667265 8.704607
RightToeBase 6.959428 -0.000000 -0.000000
LeftUpLeg -40.445186 13.019015 -1.236121
LeftLeg 0.221719 -0.000000 -0.000000
LeftFoot 0.987426 5.970416 -26.733093
LeftToeBase 5.565023 -0.000000 -0.000000
Spine 8.049178 -6.262597 18.672664
RightShoulder -9.171318 -2.343492 -26.439471
RightArm 33.890882 17.584812 47.683374
RightForeArm -15.337433 -0.000000 24.724765
RightHand 15.318466 -0.000000 -3.581147
RightHandThumb1 -24.326973 -0.000000 -32.862282
LeftShoulder -13.745387 -6.232993 31.753785
LeftArm 52.284866 -13.554815 -44.775034
LeftForeArm 25.099586 -0.000000 21.153566
LeftHand -0.860196 -0.000000 4.991861
LeftHandThumb1 -26.253704 0.000000 33.147579
Head -24.135606 -7.534816 3.823689
315
root 1.921640 32.332685 -6.465724 39.058843 -13.119569 8.418110
RightUpLeg -47.252791 -7.798176 -20.067335
RightLeg 2.119632 -0.000000 -0.000000
RightFoot -4.134907 -3.552663 8.724482
RightToeBase 6.953659 -0.000000 -0.000000
LeftUpLeg -40.737030 12.926971 -1.188130
LeftLeg 0.235066 -0.000000 -0.000000
LeftFoot 1.039106 5.827618 -26.739517
LeftToeBase 5.463690 -0.000000 -0.000000
Spine 8.384880 -6.149151 18.821417
RightShoulder -9.182631 -2.205381 -26.393296
RightArm 34.100841 17.488368 47.614526
RightForeArm -15.250619 0.000000 24.837176
RightHand 15.217372 -0.000000 -3.704131
RightHandThumb1 -24.326973 -0.000000 -32.862282
LeftShoulder -13.578100 -6.430869 31.973690
LeftArm 52.690406 -13.509176 -44.612652
LeftForeArm 25.607312 0.000000 22.542718
LeftHand -0.775282 -0.000000 5.247583
LeftHandThumb1 -26.253704 0.000000 33.147579
Head -24.301704 -7.970134 4.122048
316
root 1.955727 32.324517 -6.492679 39.395612 -13.346629 8.467100
RightUpLeg -47.735852 -7.815520 -20.250443
RightLeg 2.171708 -0.000000 -0.000000
RightFoot -4.090779 -3.572634 8.759290
RightToeBase 6.956037 -0.000000 -0.000000
LeftUpLeg -41.066828 12.955708 -1.268823
LeftLeg 0.218483 -0.000000 -0.000000
LeftFoot 1.103523 5.644612 -26.805616
LeftToeBase 5.400234 -0.000000 -0.000000
Spine 8.646533 -6.184704 18.977762
RightShoulder -9.024265 -1.902987 -26.432583
RightArm 34.219983 17.297335 47.601056
RightForeArm -15.254650 0.000000 24.994508
RightHand 15.151971 0.000000 -3.661465
RightHandThumb1 -24.326973 -0.000000 -32.862282
LeftShoulder -13.508069 -6.481152 32.079736
LeftArm 53.097434 -13.523136 -44.354658
LeftForeArm 25.894640 -0.000000 24.046848
LeftHand -0.844126 -0.000000 5.116112
LeftHandThumb1 -26.253704 0.000000 33.147579
Head -24.342254 -8.245825 4.285911
317
root 1.992471 32.315775 -6.519483 39.726050 -13.605494 8.533430
RightUpLeg -48.229951 -7.873761 -20.418826
RightLeg 2.205953 -0.000000 -0.000000
RightFoot -4.018323 -3.529213 8.800744
RightToeBase 7.020032 -0.000000 -0.000000
LeftUpLeg -41.392753 12.970792 -1.376079
LeftLeg 0.212474 -0.000000 -0.000000
LeftFoot 1.111297 5.490956 -26.911703
LeftToeBase 5.441989 -0.000000 -0.000000
Spine 8.920383 -6.179090 19.075683
RightShoulder -8.911889 -1.883471 -26.344181
RightArm 34.613458 17.313715 47.589027
RightForeArm -15.213055 -0.000000 25.097536
RightHand 15.209728 -0.000000 -3.538192
RightHandThumb1 -24.326973 -0.000000 -32.862282
LeftShoulder -13.407710 -6.774225 32.377678
LeftArm 53.218615 -13.300250 -44.124560
LeftForeArm 26.351756 -0.000000 25.636858
LeftHand -0.888293 -0.000000 5.112049
LeftHandThumb1 -26.253704 0.000000 33.147579
Head -24.391177 -8.541057 4.536131
318
root 2.030088 32.307236 -6.541989 40.022895 -13.873917 8.592003
RightUpLeg -48.697120 -7.929810 -20.572442
RightLeg 2.257102 -0.000000 -0.000000
RightFoot -3.949702 -3.468845 8.838195
RightToeBase 6.997172 -0.000000 -0.000000
LeftUpLeg -41.678759 13.033954 -1.520253
LeftLeg 0.183137 -0.000000 -0.000000
LeftFoot 1.154935 5.323988 -26.982431
LeftToeBase 5.488129 -0.000000 -0.000000
Spine 9.239798 -6.211533 19.186113
RightShoulder -8.775022 -1.533189 -26.361907
RightArm 34.751779 17.084916 47.537412
RightForeArm -15.105143 -0.000000 25.230179
RightHand 15.167435 -0.000000 -3.711874
RightHandThumb1 -24.326973 -0.000000 -32.862282
LeftShoulder -13.313354 -6.869584 32.518301
LeftArm 53.485975 -13.254957 -43.836371
LeftForeArm 26.933226 0.000000 27.248000
LeftHand -0.734758 0.000000 5.372124
LeftHandThumb1 -26.253704 0.000000 33.147579
Head -24.455778 -8.809467 4.714454
319
root 2.073031 32.297920 -6.559353 40.331189 -14.172986 8.672129
RightUpLeg -49.165646 -8.027115 -20.733788
RightLeg 2.269665 -0.000000 -0.000000
RightFoot -3.851423 -3.329700 8.930317
RightToeBase 7.096325 -0.000000 -0.000000
LeftUpLeg -41.971494 13.132148 -1.772823
LeftLeg 0.131395 -0.000000 -0.000000
LeftFoot 1.160145 5.173207 -27.018832
LeftToeBase 5.613165 -0.000000 -0.000000
Spine 9.526473 -6.234151 19.265472
RightShoulder -8.626845 -1.310513 -26.357699
RightArm 34.959437 16.967937 47.523430
RightForeArm -15.070878 -0.000000 25.426818
RightHand 15.199481 -0.000000 -3.601792
RightHandThumb1 -24.326973 -0.000000 -32.862282
LeftShoulder -13.227304 -7.021967 32.662193
LeftArm 53.727403 -13.125517 -43.510057
LeftForeArm 27.525621 -0.000000 28.879411
LeftHand -0.471948 0.000000 5.596091
LeftHandThumb1 -26.253704 0.000000 33.147579
Head -24.494296 -9.055312 4.907303
320
root 2.114130 32.288311 -6.577312 40.660298 -14.429963 8.741158
RightUpLeg -49.618006 -8.096161 -20.914431
RightLeg 2.264867 -0.000000 -0.000000
RightFoot -3.772043 -3.290577 8.965626
RightToeBase 7.156797 -0.000000 -0.000000
LeftUpLeg -42.288141 13.177100 -1.980994
LeftLeg 0.074637 -0.000000 -0.000000
LeftFoot 1.131781 5.081103 -27.105760
LeftToeBase 5.647959 -0.000000 -0.000000
Spine 9.787448 -6.266583 19.386693
RightShoulder -8.493796 -0.991660 -26.388701
RightArm 35.083947 16.778541 47.510016
RightForeArm -15.120870 -0.000000 25.618998
RightHand 15.135357 -0.000000 -3.588111
RightHandThumb1 -24.326973 -0.000000 -32.862282
LeftShoulder -13.122203 -7.295715 32.891325
LeftArm 53.819069 -12.897325 -43.243455
LeftForeArm 28.004125 -0.000000 30.603720
LeftHand -0.552531 0.000000 5.536126
LeftHandThumb1 -26.253704 0.000000 33.147579
Head -24.557575 -9.342847 5.093306
321
root 2.154680 32.279701 -6.592687 40.978498 -14.723262 8.826645
RightUpLeg -50.072952 -8.154593 -21.118626
RightLeg 2.262779 -0.000000 -0.000000
RightFoot -3.698008 -3.257372 9.061169
RightToeBase 7.266503 -0.000000 -0.000000
LeftUpLeg -42.586972 13.254459 -2.262075
LeftLeg 0.010676 -0.000000 -0.000000
LeftFoot 1.084023 5.013818 -27.163100
LeftToeBase 5.726218 -0.000000 -0.000000
Spine 10.053136 -6.289847 19.452809
RightShoulder -8.307813 -0.682208 -26.436448
RightArm 35.129658 16.561241 47.496123
RightForeArm -15.101330 -0.000000 25.876876
RightHand 15.063739 0.000000 -3.842621
RightHandThumb1 -24.326973 -0.000000 -32.862282
LeftShoulder -13.010807 -7.455962 33.098133
LeftArm 53.977863 -12.655209 -42.835753
LeftForeArm 28.417539 0.000000 32.293889
LeftHand -0.618498 -0.000000 5.622929
LeftHandThumb1 -26.253704 0.000000 33.147579
Head -24.605350 -9.659333 5.292172
322
root 2.197265 32.271544 -6.605471 41.312824 -15.006023 8.910711
RightUpLeg -50.547059 -8.286203 -21.244227
RightLeg 2.259314 -0.000000 -0.000000
RightFoot -3.587864 -3.149937 9.038333
RightToeBase 7.378139 -0.000000 -0.000000
LeftUpLeg -42.882433 13.272093 -2.499869
LeftLeg -0.073608 -0.000000 0.000000
LeftFoot 1.038452 4.996804 -27.188115
LeftToeBase 5.812522 -0.000000 -0.000000
Spine 10.310352 -6.324999 19.557681
RightShoulder -8.156477 -0.344979 -26.515831
RightArm 35.184794 16.351667 47.522167
RightForeArm -15.161580 -0.000000 26.156731
RightHand 15.046011 -0.000000 -3.728859
RightHandThumb1 -24.326973 -0.000000 -32.862282
LeftShoulder -12.932223 -7.820611 33.345464
LeftArm 53.987958 -12.258189 -42.496538
LeftForeArm 28.845398 -0.000000 34.006246
LeftHand -0.587595 -0.000000 5.680170
LeftHandThumb1 -26.253704 0.000000 33.147579
Head -24.674655 -9.903269 5.485665
323
root 2.242325 32.262657 -6.617610 41.631601 -15.336221 8.999824
RightUpLeg -51.047950 -8.377736 -21.435443
RightLeg 2.311625 -0.000000 -0.000000
RightFoot -3.499621 -3.041252 9.091673
RightToeBase 7.508668 -0.000000 -0.000000
LeftUpLeg -43.156062 13.302660 -2.782599
LeftLeg -0.160041 -0.000000 0.000000
LeftFoot 0.866998 5.060475 -27.371132
LeftToeBase 6.122569 -0.000000 -0.000000
Spine 10.614096 -6.360725 19.576842
RightShoulder -8.000317 -0.262210 -26.471338
RightArm 35.498955 16.320328 47.534727
RightForeArm -15.227001 -0.000000 26.395054
RightHand 15.115629 -0.000000 -3.559999
RightHandThumb1 -24.326973 -0.000000 -32.862282
LeftShoulder -12.904237 -8.037578 33.648216
LeftArm 54.129123 -11.914433 -42.230571
LeftForeArm 29.729562 -0.000000 35.741309
LeftHand -0.692673 -0.000000 5.887291
LeftHandThumb1 -26.253704 0.000000 33.147579
Head -24.817175 -10.145087 5.688334
324
root 2.286245 32.254434 -6.628805 41.981559 -15.656378 9.094741
RightUpLeg -51.574673 -8.482915 -21.626894
RightLeg 2.361899 -0.000000 -0.000000
RightFoot -3.382464 -2.974655 9.185886
RightToeBase 7.583204 -0.000000 -0.000000
LeftUpLeg -43.469710 13.308562 -3.078656
LeftLeg -0.236561 -0.000000 0.000000
LeftFoot 0.760056 5.135738 -27.249245
LeftToeBase 6.096501 -0.000000 -0.000000
Spine 10.850936 -6.366301 19.622920
RightShoulder -7.915251 -0.402417 -26.351614
RightArm 36.050180 16.298471 47.459756
RightForeArm -15.056145 0.000000 26.591156
RightHand 15.097176 -0.000000 -3.752981
RightHandThumb1 -24.326973 -0.000000 -32.862282
LeftShoulder -12.783678 -8.197754 33.885873
LeftArm 54.300382 -11.677945 -41.958898
LeftForeArm 30.102443 0.000000 37.497517
LeftHand -0.768039 0.000000 5.922888
LeftHandThumb1 -26.253704 0.000000 33.147579
Head -24.900811 -10.393080 5.884328
325
root 2.326855 32.248607 -6.638095 42.329367 -15.952537 9.185063
RightUpLeg -52.101073 -8.634714 -21.742857
RightLeg 2.422058 -0.000000 -0.000000
RightFoot -3.258030 -2.871894 9.248135
RightToeBase 7.695837 -0.000000 -0.000000
LeftUpLeg -43.775751 13.292761 -3.333928
LeftLeg -0.319015 -0.000000 0.000000
LeftFoot 0.677066 5.203722 -27.219627
LeftToeBase 6.037455 -0.000000 -0.000000
Spine 11.122590 -6.441510 19.699292
RightShoulder -7.796667 -0.281232 -26.363001
RightArm 36.389988 16.201109 47.516246
RightForeArm -15.162500 -0.000000 26.854943
RightHand 15.121919 -0.000000 -3.764723
RightHandThumb1 -24.326973 -0.000000 -32.862282
LeftShoulder -12.695727 -8.543640 34.204903
LeftArm 54.215935 -11.295321 -41.706252
LeftForeArm 30.463760 0.000000 39.343177
LeftHand -0.685869 -0.000000 5.932201
LeftHandThumb1 -26.253704 0.000000 33.147579
Head -25.077701 -10.515902 6.065871
